<svg width="35" height="35" viewBox="0 0 35 35" fill="none" xmlns="http://www.w3.org/2000/svg">
<rect width="35" height="35" fill="#9073CE"/>
<path d="M23.3335 26.25C24.107 26.25 24.8489 26.5573 25.3959 27.1043C25.9429 27.6513 26.2502 28.3931 26.2502 29.1667C26.2502 29.9402 25.9429 30.6821 25.3959 31.2291C24.8489 31.776 24.107 32.0833 23.3335 32.0833C22.5599 32.0833 21.8181 31.776 21.2711 31.2291C20.7241 30.6821 20.4168 29.9402 20.4168 29.1667C20.4168 28.3931 20.7241 27.6513 21.2711 27.1043C21.8181 26.5573 22.5599 26.25 23.3335 26.25ZM23.3335 27.7083C22.9467 27.7083 22.5758 27.862 22.3023 28.1355C22.0288 28.409 21.8752 28.7799 21.8752 29.1667C21.8752 29.5534 22.0288 29.9244 22.3023 30.1979C22.5758 30.4714 22.9467 30.625 23.3335 30.625C23.7203 30.625 24.0912 30.4714 24.3647 30.1979C24.6382 29.9244 24.7918 29.5534 24.7918 29.1667C24.7918 28.7799 24.6382 28.409 24.3647 28.1355C24.0912 27.862 23.7203 27.7083 23.3335 27.7083ZM10.2085 26.25C10.982 26.25 11.7239 26.5573 12.2709 27.1043C12.8179 27.6513 13.1252 28.3931 13.1252 29.1667C13.1252 29.9402 12.8179 30.6821 12.2709 31.2291C11.7239 31.776 10.982 32.0833 10.2085 32.0833C9.43495 32.0833 8.69308 31.776 8.1461 31.2291C7.59912 30.6821 7.29183 29.9402 7.29183 29.1667C7.29183 28.3931 7.59912 27.6513 8.1461 27.1043C8.69308 26.5573 9.43495 26.25 10.2085 26.25ZM10.2085 27.7083C9.82172 27.7083 9.45079 27.862 9.1773 28.1355C8.90381 28.409 8.75016 28.7799 8.75016 29.1667C8.75016 29.5534 8.90381 29.9244 9.1773 30.1979C9.45079 30.4714 9.82172 30.625 10.2085 30.625C10.5953 30.625 10.9662 30.4714 11.2397 30.1979C11.5132 29.9244 11.6668 29.5534 11.6668 29.1667C11.6668 28.7799 11.5132 28.409 11.2397 28.1355C10.9662 27.862 10.5953 27.7083 10.2085 27.7083ZM26.2502 8.75H6.22725L9.946 17.5H21.8752C22.3564 17.5 22.7793 17.2667 23.0418 16.9167L27.4168 11.0833C27.6064 10.8354 27.7085 10.5292 27.7085 10.2083C27.7085 9.82156 27.5549 9.45063 27.2814 9.17714C27.0079 8.90365 26.6369 8.75 26.2502 8.75ZM21.8752 18.9583H10.0189L8.896 21.2333L8.75016 21.875C8.75016 22.2618 8.90381 22.6327 9.1773 22.9062C9.45079 23.1797 9.82172 23.3333 10.2085 23.3333H26.2502V24.7917H10.2085C9.43495 24.7917 8.69308 24.4844 8.1461 23.9374C7.59912 23.3904 7.29183 22.6485 7.29183 21.875C7.2914 21.3802 7.41686 20.8934 7.65641 20.4604L8.70641 18.3167L3.41266 5.83333H1.4585V4.375H4.37516L5.61475 7.29167H26.2502C27.0237 7.29167 27.7656 7.59896 28.3126 8.14594C28.8595 8.69292 29.1668 9.43479 29.1668 10.2083C29.1668 10.9375 28.9189 11.55 28.5106 12.0458L24.2668 17.7188C23.7418 18.4625 22.8668 18.9583 21.8752 18.9583Z" fill="black"/>
</svg>
